# xmcd CD database file
#
# Track frame offsets:
#	150
#	13718
#	25425
#	38458
#	49838
#	59884
#	70486
#	83689
#	98801
#	113071
#	126639
#	140330
#	153594
#	167732
#
# Disc length: 2392 seconds
#
# Revision: 5
# Processed by: cddbd v1.5.2PL0 Copyright (c) Steve Scherf et al.
# Submitted via: CDex 1.51
#
DISCID=c409560e
DTITLE=Billie Holiday - No regrets  [CD 3-3]
DYEAR=2000
DGENRE=Jazz
TTITLE0=The mood that I'm in
TTITLE1=Me myself and I
TTITLE2=You go to my head
TTITLE3=How could you
TTITLE4=Trav'lin all alone
TTITLE5=Detour ahead
TTITLE6=God bless the child
TTITLE7=It's like reaching for the moon
TTITLE8=This year's kisses
TTITLE9=What a little moonlight can do
TTITLE10=Easy living
TTITLE11=I cover the waterfront
TTITLE12=Nice work if you can get it
TTITLE13=No regrets
EXTD=YEAR: 2000
EXTT0=
EXTT1=
EXTT2=
EXTT3=
EXTT4=
EXTT5=
EXTT6=
EXTT7=
EXTT8=
EXTT9=
EXTT10=
EXTT11=
EXTT12=
EXTT13=
PLAYORDER=
